<svg width="24" height="24" viewBox="0 0 24 24" fill="none" xmlns="http://www.w3.org/2000/svg">
<path fill-rule="evenodd" clip-rule="evenodd" d="M11.9998 24C14.1675 24.0002 16.2947 23.4131 18.1555 22.3012C20.0163 21.1892 21.5412 19.594 22.5681 17.6848C23.595 15.7757 24.0856 13.624 23.9878 11.4584C23.8899 9.29275 23.2073 7.19408 22.0124 5.38533L12.4731 15.9853C12.0275 16.4806 11.4127 16.791 10.7497 16.8557C10.0867 16.9203 9.42354 16.7345 8.8907 16.3347L4.53367 13.0667C4.25079 12.8545 4.06378 12.5386 4.01378 12.1886C3.96377 11.8385 4.05487 11.4829 4.26702 11.2C4.47918 10.9171 4.79502 10.7301 5.14507 10.6801C5.49511 10.6301 5.85068 10.7212 6.13356 10.9333L10.4906 14.2013L20.2846 3.32C18.8657 1.96548 17.1365 0.979468 15.2483 0.448296C13.36 -0.0828753 11.3704 -0.143008 9.4535 0.273163C7.53663 0.689334 5.75101 1.56912 4.25299 2.83548C2.75496 4.10185 1.5902 5.71618 0.8607 7.53712C0.1312 9.35807 -0.140799 11.3301 0.0685192 13.2806C0.277838 15.231 0.96209 17.1004 2.06137 18.7251C3.16064 20.3497 4.64142 21.6801 6.37404 22.5997C8.10666 23.5193 10.0383 24.0001 11.9998 24Z" fill="#1364FF"/>
</svg>
