<svg width="24" height="24" viewBox="0 0 30 30" fill="none" xmlns="http://www.w3.org/2000/svg">
<path fill-rule="evenodd" clip-rule="evenodd" d="M15 30C23.2843 30 30 23.2843 30 15C30 6.71573 23.2843 0 15 0C6.71573 0 0 6.71573 0 15C0 23.2843 6.71573 30 15 30ZM9.375 21C9.375 20.3787 9.87868 19.875 10.5 19.875H19.5C20.1213 19.875 20.625 20.3787 20.625 21C20.625 21.6213 20.1213 22.125 19.5 22.125H10.5C9.87868 22.125 9.375 21.6213 9.375 21ZM12 12.75C12 13.9926 11.3284 15 10.5 15C9.67157 15 9 13.9926 9 12.75C9 11.5074 9.67157 10.5 10.5 10.5C11.3284 10.5 12 11.5074 12 12.75ZM19.5 15C20.3284 15 21 13.9926 21 12.75C21 11.5074 20.3284 10.5 19.5 10.5C18.6716 10.5 18 11.5074 18 12.75C18 13.9926 18.6716 15 19.5 15Z" fill="#F16B51"/>
</svg>
