<svg width="24" height="25" viewBox="0 0 24 25" fill="none" xmlns="http://www.w3.org/2000/svg">
<path d="M18 8.5C18 11.8137 15.3137 14.5 12 14.5C8.68629 14.5 6 11.8137 6 8.5C6 5.18629 8.68629 2.5 12 2.5C15.3137 2.5 18 5.18629 18 8.5Z" fill="#1364FF"/>
<path d="M5.03349 11.2835C3.22163 12.3161 2 14.2654 2 16.5C2 19.8137 4.68629 22.5 8 22.5C11.3137 22.5 14 19.8137 14 16.5C14 16.2437 13.9839 15.9911 13.9527 15.7433C13.3301 15.9107 12.6755 16 12 16C8.84139 16 6.13882 14.0474 5.03349 11.2835Z" fill="#1364FF"/>
<path d="M15.3866 15.1937C15.4611 15.6179 15.5 16.0544 15.5 16.5C15.5 18.5906 14.6446 20.4815 13.2646 21.8416C14.0849 22.2625 15.0147 22.5 16 22.5C19.3137 22.5 22 19.8137 22 16.5C22 14.2654 20.7783 12.3161 18.9665 11.2835C18.2876 12.9811 17.0062 14.3726 15.3866 15.1937Z" fill="#1364FF"/>
</svg>
