<svg width="24" height="25" viewBox="0 0 24 25" fill="none" xmlns="http://www.w3.org/2000/svg">
<path fill-rule="evenodd" clip-rule="evenodd" d="M4.41426 18.359C4.77208 18.1504 5.2313 18.2713 5.43996 18.6291C6.26682 20.0471 7.53091 21.1193 9.08979 21.8151C9.46804 21.9839 9.63782 22.4274 9.469 22.8057C9.30018 23.1839 8.8567 23.3537 8.47845 23.1849C6.66693 22.3764 5.14713 21.1046 4.14418 19.3847C3.93552 19.0269 4.05644 18.5677 4.41426 18.359Z" fill="white" fill-opacity="0.5"/>
<path fill-rule="evenodd" clip-rule="evenodd" d="M18.9062 4.42194C17.8923 3.38646 16.4464 3.00452 15.0308 3.4073C14.6324 3.52066 14.2176 3.28959 14.1042 2.89119C13.9908 2.49279 14.2219 2.07792 14.6203 1.96456C16.5585 1.41307 18.575 1.93959 19.978 3.3725C20.2678 3.66846 20.2628 4.14331 19.9668 4.4331C19.6709 4.7229 19.196 4.7179 18.9062 4.42194Z" fill="white" fill-opacity="0.5"/>
<path fill-rule="evenodd" clip-rule="evenodd" d="M11.1906 3.80839C10.9766 3.44131 10.3527 3.2187 9.71907 3.58085C9.08771 3.94168 8.97667 4.57772 9.187 4.9384L11.7127 9.26952C11.9213 9.62734 11.8004 10.0866 11.4426 10.2952C11.0848 10.5039 10.6255 10.383 10.4169 10.0251L7.04934 4.25032C6.83528 3.88324 6.21147 3.66063 5.5778 4.02278C4.94644 4.38361 4.8354 5.01965 5.04573 5.38033L8.83422 11.877C9.04288 12.2348 8.92196 12.6941 8.56414 12.9027C8.20632 13.1114 7.7471 12.9905 7.53844 12.6326L5.85467 9.74522C5.64061 9.37814 5.0168 9.15553 4.38313 9.51768C3.75177 9.87851 3.64073 10.5145 3.85106 10.8752L7.63955 17.3719C9.24849 20.131 13.2188 21.0264 16.5858 19.1021C19.9505 17.1792 21.1465 13.3377 19.5413 10.585L17.0156 6.25387C16.8016 5.88679 16.1778 5.66418 15.5441 6.02633C14.9128 6.38716 14.8017 7.0232 15.012 7.38389L16.6958 10.2713C16.7966 10.4441 16.8241 10.65 16.7724 10.8432C16.7206 11.0365 16.5938 11.201 16.4201 11.3003C14.8776 12.1818 14.4049 13.8863 15.0802 15.0443C15.2889 15.4022 15.1679 15.8614 14.8101 16.07C14.4523 16.2787 13.9931 16.1578 13.7844 15.8C12.8717 14.2348 13.2405 12.3501 14.4194 11.0181C14.749 10.6457 14.8618 10.104 14.6113 9.67438L11.1906 3.80839Z" fill="white" fill-opacity="0.5"/>
</svg>
