<svg width="24" height="25" viewBox="0 0 24 25" fill="none" xmlns="http://www.w3.org/2000/svg">
<path d="M16.9358 13.6007C17.804 13.2969 18.8834 13.256 21.1392 13.2508H22.7242C22.7167 13.359 22.7348 13.1434 22.7242 13.2508C22.6895 13.6321 22.5227 13.9894 22.2526 14.2608L13.7454 22.8107C13.4821 23.0754 13.1241 23.2242 12.7508 23.2242C12.6434 23.2348 12.859 23.2167 12.7508 23.2242V21.6392C12.756 19.3834 12.7969 18.304 13.1007 17.4358C13.7289 15.6405 15.1405 14.2289 16.9358 13.6007Z" fill="#1364FF"/>
<path fill-rule="evenodd" clip-rule="evenodd" d="M11.5515 17.3809C11.2763 18.4436 11.2521 19.7445 11.2501 21.72V23.2243C5.66292 22.8393 1.25 18.185 1.25 12.5C1.25 6.56294 6.06294 1.75 12 1.75C17.685 1.75 22.3393 6.16292 22.7243 11.7501H21.22C18.9634 11.7524 17.587 11.7837 16.4403 12.1849C14.6151 12.8236 13.1098 14.1152 12.1975 15.7866C12.1782 15.7885 12.1589 15.7911 12.1396 15.7945C11.0656 15.9824 10.0235 15.9383 9.09494 15.7056C8.69315 15.6049 8.2858 15.849 8.1851 16.2508C8.0844 16.6526 8.32847 17.0599 8.73026 17.1606C9.61622 17.3827 10.5717 17.4615 11.5515 17.3809ZM14.8977 11.7234C15.4311 11.5805 15.6898 10.8159 15.4754 10.0157C15.2609 9.21552 14.6547 8.68271 14.1212 8.82565C13.5877 8.9686 13.3291 9.73316 13.5435 10.5334C13.7579 11.3336 14.3642 11.8664 14.8977 11.7234ZM9.10225 13.2764C9.63571 13.1335 9.89436 12.3689 9.67994 11.5687C9.46553 10.7685 8.85925 10.2357 8.32579 10.3786C7.79232 10.5216 7.53368 11.2861 7.74809 12.0863C7.9625 12.8865 8.56878 13.4194 9.10225 13.2764Z" fill="#1364FF"/>
</svg>
