<svg width="30" height="31" viewBox="0 0 30 31" fill="none" xmlns="http://www.w3.org/2000/svg">
<path d="M19.0645 13.8612C17.8312 12.3856 17.2145 11.6478 16.5057 11.7614C15.7968 11.8751 15.4652 12.7649 14.802 14.5446L14.6304 15.005C14.4419 15.5108 14.3477 15.7636 14.1643 15.9499C13.9809 16.1362 13.7292 16.2348 13.2258 16.432L12.7675 16.6115C10.9958 17.3053 10.11 17.6523 10.009 18.3614C9.90798 19.0705 10.6586 19.6722 12.16 20.8756L12.5484 21.1869C12.975 21.5288 13.1883 21.6998 13.3118 21.9339C13.4353 22.1679 13.4549 22.4385 13.4943 22.9797L13.5301 23.4724C13.6684 25.3769 13.7376 26.3291 14.384 26.6537C15.0305 26.9784 15.826 26.4604 17.4171 25.4244L17.8288 25.1564C18.2809 24.862 18.507 24.7148 18.7667 24.6731C19.0263 24.6315 19.2902 24.7002 19.8179 24.8375L20.2984 24.9625C22.1555 25.4456 23.0841 25.6872 23.5846 25.1787C24.0852 24.6702 23.8262 23.7484 23.3082 21.9048L23.1742 21.4278C23.027 20.9039 22.9534 20.6419 22.9905 20.3822C23.0275 20.1224 23.1709 19.8942 23.4577 19.4379L23.7189 19.0224C24.7283 17.4166 25.233 16.6136 24.8959 15.9747C24.5588 15.3359 23.6032 15.2841 21.692 15.1807L21.1975 15.1539C20.6544 15.1245 20.3828 15.1098 20.146 14.9909C19.9092 14.872 19.734 14.6623 19.3836 14.243L19.0645 13.8612Z" fill="#C6FE1E"/>
<path d="M18.5974 6.95903L18.8262 7.61131C19.0775 8.32776 19.2031 8.686 19.4476 8.94989C19.6921 9.21377 20.0277 9.35344 20.6989 9.63277L21.3101 9.88708C23.6722 10.8701 24.8533 11.3616 24.988 12.3661C25.0441 12.7843 24.9034 13.1761 24.5756 13.614C24.4648 13.584 24.3582 13.5596 24.258 13.5392C23.6003 13.4055 22.7638 13.3604 21.9112 13.3145L21.299 13.2813C21.1813 13.275 21.0897 13.27 21.0113 13.2649C20.9594 13.2041 20.8995 13.1326 20.8224 13.0403L20.4279 12.5682C19.8774 11.9092 19.3388 11.2645 18.838 10.8169C18.3038 10.3396 17.411 9.71702 16.209 9.90972C14.9943 10.1045 14.3464 10.9883 13.9968 11.6191C13.673 12.2036 13.3817 12.9858 13.0868 13.7777L12.8736 14.3499C12.8375 14.4466 12.8086 14.5241 12.7832 14.5907C12.7166 14.6174 12.639 14.6478 12.5422 14.6858L11.9728 14.9087C11.1842 15.2174 10.4062 15.5219 9.82681 15.8552C9.20339 16.2139 8.32674 16.8764 8.15291 18.0966C7.98073 19.3052 8.62439 20.1874 9.11161 20.7106C9.47474 21.1006 9.96263 21.5119 10.4836 21.9334C8.52284 22.4654 7.4799 22.6638 6.88715 22.024C6.21977 21.3036 6.56508 19.9977 7.25569 17.3859L7.43436 16.7102C7.63061 15.968 7.72874 15.5969 7.67939 15.2289C7.63005 14.8609 7.43882 14.5377 7.05637 13.8912L6.70818 13.3026C5.36232 11.0276 4.68939 9.89013 5.13882 8.98505C5.58825 8.07996 6.8624 8.00669 9.41071 7.86015L10.07 7.82224C10.7941 7.7806 11.1562 7.75978 11.4719 7.59131C11.7877 7.42285 12.0213 7.12583 12.4886 6.53177L12.914 5.99093C14.5584 3.90042 15.3806 2.85517 16.3258 3.01616C17.2709 3.17716 17.7131 4.43778 18.5974 6.95903Z" fill="#C6FE1E"/>
</svg>
